<svg width="19" height="19" viewBox="0 0 19 19" fill="none" xmlns="http://www.w3.org/2000/svg">
<path d="M16.1542 4.46357C16.1542 5.22642 15.5358 5.84482 14.7729 5.84482C14.0101 5.84482 13.3917 5.22642 13.3917 4.46357C13.3917 3.70073 14.0101 3.08232 14.7729 3.08232C15.5358 3.08232 16.1542 3.70073 16.1542 4.46357Z" fill="#406636"/>
<path fill-rule="evenodd" clip-rule="evenodd" d="M9.70833 14.1323C12.2511 14.1323 14.3125 12.071 14.3125 9.52816C14.3125 6.98535 12.2511 4.92399 9.70833 4.92399C7.16552 4.92399 5.10417 6.98535 5.10417 9.52816C5.10417 12.071 7.16552 14.1323 9.70833 14.1323ZM9.70833 12.2907C11.234 12.2907 12.4708 11.0538 12.4708 9.52816C12.4708 8.00247 11.234 6.76566 9.70833 6.76566C8.18265 6.76566 6.94583 8.00247 6.94583 9.52816C6.94583 11.0538 8.18265 12.2907 9.70833 12.2907Z" fill="#406636"/>
<path fill-rule="evenodd" clip-rule="evenodd" d="M0.5 9.15983C0.5 6.06554 0.5 4.51839 1.10219 3.33653C1.63189 2.29693 2.47711 1.45171 3.5167 0.922013C4.69857 0.319824 6.24571 0.319824 9.34 0.319824H10.0767C13.171 0.319824 14.7181 0.319824 15.9 0.922013C16.9396 1.45171 17.7848 2.29693 18.3145 3.33653C18.9167 4.51839 18.9167 6.06554 18.9167 9.15983V9.89649C18.9167 12.9908 18.9167 14.5379 18.3145 15.7198C17.7848 16.7594 16.9396 17.6046 15.9 18.1343C14.7181 18.7365 13.171 18.7365 10.0767 18.7365H9.34C6.24571 18.7365 4.69857 18.7365 3.5167 18.1343C2.47711 17.6046 1.63189 16.7594 1.10219 15.7198C0.5 14.5379 0.5 12.9908 0.5 9.89649V9.15983ZM9.34 2.16149H10.0767C11.6542 2.16149 12.7266 2.16292 13.5555 2.23065C14.3629 2.29662 14.7758 2.41619 15.0639 2.56295C15.7569 2.91608 16.3204 3.47956 16.6735 4.17263C16.8203 4.46066 16.9399 4.87357 17.0058 5.68099C17.0736 6.5099 17.075 7.58229 17.075 9.15983V9.89649C17.075 11.474 17.0736 12.5464 17.0058 13.3753C16.9399 14.1827 16.8203 14.5957 16.6735 14.8837C16.3204 15.5768 15.7569 16.1402 15.0639 16.4934C14.7758 16.6401 14.3629 16.7597 13.5555 16.8257C12.7266 16.8934 11.6542 16.8948 10.0767 16.8948H9.34C7.76247 16.8948 6.69008 16.8934 5.86116 16.8257C5.05375 16.7597 4.64084 16.6401 4.3528 16.4934C3.65974 16.1402 3.09626 15.5768 2.74313 14.8837C2.59636 14.5957 2.47679 14.1827 2.41082 13.3753C2.3431 12.5464 2.34167 11.474 2.34167 9.89649V9.15983C2.34167 7.58229 2.3431 6.5099 2.41082 5.68099C2.47679 4.87357 2.59636 4.46066 2.74313 4.17263C3.09626 3.47956 3.65974 2.91608 4.3528 2.56295C4.64084 2.41619 5.05375 2.29662 5.86116 2.23065C6.69008 2.16292 7.76247 2.16149 9.34 2.16149Z" fill="#406636"/>
</svg>
