<svg width="19" height="19" viewBox="0 0 19 19" fill="none" xmlns="http://www.w3.org/2000/svg">
<path d="M4.94278 2.54581C4.94278 3.77518 3.94823 4.77179 2.72139 4.77179C1.49455 4.77179 0.5 3.77518 0.5 2.54581C0.5 1.31643 1.49455 0.319824 2.72139 0.319824C3.94823 0.319824 4.94278 1.31643 4.94278 2.54581Z" fill="#406636"/>
<path d="M0.80378 6.40798H4.60103V18.7365H0.80378V6.40798Z" fill="#406636"/>
<path d="M10.7146 6.40798H6.91736V18.7365H10.7146C10.7146 18.7365 10.7146 14.8553 10.7146 12.4286C10.7146 10.972 11.1788 9.50913 13.0309 9.50913C15.1241 9.50913 15.1115 11.4153 15.1017 12.892C15.089 14.8222 15.1194 16.792 15.1194 18.7365H18.9167V12.2298C18.8845 8.07505 17.8741 6.16065 14.5498 6.16065C12.5757 6.16065 11.352 7.12092 10.7146 7.9897V6.40798Z" fill="#406636"/>
</svg>
