<svg width="19" height="16" viewBox="0 0 19 16" fill="none" xmlns="http://www.w3.org/2000/svg">
<path d="M6.28069 15.9032C4.15291 15.9032 2.16945 15.2657 0.5 14.1657C1.91742 14.2602 4.41885 14.0339 5.97474 12.5052C3.63417 12.3945 2.57863 10.5454 2.44095 9.75517C2.63982 9.83419 3.58828 9.92902 4.1237 9.70775C1.43129 9.01235 1.01825 6.57844 1.11004 5.83563C1.61486 6.19913 2.47154 6.32557 2.80809 6.29396C0.299254 4.44482 1.20182 1.66321 1.64546 1.06264C3.44589 3.63207 6.14418 5.07516 9.48232 5.15543C9.41938 4.87108 9.38614 4.57504 9.38614 4.27097C9.38614 2.08881 11.0984 0.319824 13.2106 0.319824C14.3142 0.319824 15.3086 0.802741 16.0066 1.57519C16.7441 1.39718 17.854 0.980468 18.3965 0.620112C18.1231 1.63161 17.2716 2.4754 16.7566 2.78814C16.7524 2.77745 16.7609 2.79878 16.7566 2.78814C17.209 2.71765 18.4331 2.47532 18.9167 2.13735C18.6775 2.7056 17.7748 3.65041 17.034 4.17936C17.1719 10.4409 12.5211 15.9032 6.28069 15.9032Z" fill="#406636"/>
</svg>
